<svg width="225" height="194" viewBox="0 0 225 194" fill="none" xmlns="http://www.w3.org/2000/svg">
<path d="M102.999 74.2378L127.025 117.413L89.2831 110.14L102.999 74.2378Z" fill="url(#paint0_linear_319_712)"/>
<path d="M103.002 74.2385L127.028 117.414L197.148 50.1209L103.002 74.2385Z" fill="url(#paint1_linear_319_712)"/>
<path d="M44.912 80.7452L89.3014 110.138L103 74.239L44.912 80.7452Z" fill="url(#paint2_linear_319_712)"/>
<path d="M90.8765 163.346L89.3011 110.135L44.9129 80.7485L20.3669 95.0024L27.5456 144.501L65.8252 176.692L90.8765 163.346Z" fill="url(#paint3_linear_319_712)" fill-opacity="0.5"/>
<path d="M70.4361 148.905L112.82 161.786L127.027 117.414L103.001 74.238L57.8052 62.9219L46.41 105.729L70.4361 148.905Z" fill="url(#paint4_radial_319_712)" fill-opacity="0.5"/>
<path d="M46.412 105.728L70.438 148.904L27.5412 144.499L46.412 105.728Z" fill="url(#paint5_linear_319_712)"/>
<path d="M46.4122 105.73L70.4383 148.905L197.148 50.1186L46.4122 105.73Z" fill="url(#paint6_linear_319_712)" fill-opacity="0.9"/>
<path d="M65.827 176.693L70.4366 148.905L27.5396 144.5L65.827 176.693Z" fill="url(#paint7_linear_319_712)" fill-opacity="0.5"/>
<path d="M20.3661 94.9986L46.4099 105.729L27.5418 144.504L20.3661 94.9986Z" fill="url(#paint8_linear_319_712)" fill-opacity="0.5"/>
<path d="M65.8283 176.695L70.438 148.907L112.822 161.788L65.8283 176.695Z" fill="url(#paint9_linear_319_712)"/>
<path d="M20.3683 94.9987L46.4121 105.729L57.8071 62.9211L20.3683 94.9987Z" fill="url(#paint10_linear_319_712)"/>
<path d="M20.3683 94.9987L46.4121 105.729L57.8071 62.9211L20.3683 94.9987Z" fill="url(#paint11_linear_319_712)" fill-opacity="0.6"/>
<path d="M197.149 50.1188L70.4373 148.907L112.821 161.788L197.149 50.1188Z" fill="url(#paint12_linear_319_712)" fill-opacity="0.9"/>
<path d="M197.149 50.117L46.4078 105.725L57.8028 62.917L197.149 50.117Z" fill="url(#paint13_linear_319_712)" fill-opacity="0.9"/>
<defs>
<linearGradient id="paint0_linear_319_712" x1="68.6249" y1="149.911" x2="33.4365" y2="99.8342" gradientUnits="userSpaceOnUse">
<stop stop-color="white"/>
<stop offset="0.227296" stop-color="#47FFDE" stop-opacity="0.8"/>
<stop offset="1" stop-color="#6D61FF" stop-opacity="0.5"/>
</linearGradient>
<linearGradient id="paint1_linear_319_712" x1="68.6261" y1="149.915" x2="33.4376" y2="99.8378" gradientUnits="userSpaceOnUse">
<stop stop-color="white"/>
<stop offset="0.227296" stop-color="#47FFDE" stop-opacity="0.8"/>
<stop offset="1" stop-color="#6D61FF" stop-opacity="0.5"/>
</linearGradient>
<linearGradient id="paint2_linear_319_712" x1="55.3275" y1="64.3007" x2="72.8633" y2="99.8506" gradientUnits="userSpaceOnUse">
<stop stop-color="white"/>
<stop offset="0.227296" stop-color="#47FFDE" stop-opacity="0.8"/>
<stop offset="1" stop-color="#6D61FF" stop-opacity="0.5"/>
</linearGradient>
<linearGradient id="paint3_linear_319_712" x1="104.145" y1="101.875" x2="12.7013" y2="152.761" gradientUnits="userSpaceOnUse">
<stop stop-color="#6D61FF"/>
<stop offset="1" stop-color="#47FFDE"/>
</linearGradient>
<radialGradient id="paint4_radial_319_712" cx="0" cy="0" r="1" gradientUnits="userSpaceOnUse" gradientTransform="translate(86.7185 111.572) rotate(-119.095) scale(83.7659 47.9487)">
<stop stop-color="#6D61FF"/>
<stop offset="1" stop-color="#47FFDE"/>
</radialGradient>
<linearGradient id="paint5_linear_319_712" x1="68.6262" y1="149.912" x2="33.4375" y2="99.8354" gradientUnits="userSpaceOnUse">
<stop stop-color="white"/>
<stop offset="0.227296" stop-color="#47FFDE" stop-opacity="0.8"/>
<stop offset="1" stop-color="#6D61FF" stop-opacity="0.5"/>
</linearGradient>
<linearGradient id="paint6_linear_319_712" x1="55.1557" y1="147.42" x2="127.816" y2="184.858" gradientUnits="userSpaceOnUse">
<stop offset="0.0729167" stop-color="#4B86FA" stop-opacity="0.8"/>
<stop offset="0.791667" stop-color="#FCA6EF" stop-opacity="0.8"/>
<stop offset="1" stop-color="white"/>
</linearGradient>
<linearGradient id="paint7_linear_319_712" x1="69.788" y1="147.739" x2="24.7979" y2="145.741" gradientUnits="userSpaceOnUse">
<stop stop-color="#7BFFE7" stop-opacity="0.8"/>
<stop offset="1" stop-color="#322994" stop-opacity="0.5"/>
</linearGradient>
<linearGradient id="paint8_linear_319_712" x1="47.0586" y1="106.894" x2="17.2039" y2="101.726" gradientUnits="userSpaceOnUse">
<stop stop-color="#7BFFE7" stop-opacity="0.9"/>
<stop offset="1" stop-color="#322994" stop-opacity="0.5"/>
</linearGradient>
<linearGradient id="paint9_linear_319_712" x1="110.345" y1="163.166" x2="56.2447" y2="143.32" gradientUnits="userSpaceOnUse">
<stop stop-color="white"/>
<stop offset="0.586705" stop-color="#47FFDE" stop-opacity="0.9"/>
<stop offset="1" stop-color="#6D61FF" stop-opacity="0.5"/>
</linearGradient>
<linearGradient id="paint10_linear_319_712" x1="22.068" y1="95.0988" x2="49.4041" y2="110.881" gradientUnits="userSpaceOnUse">
<stop stop-color="#0A3892"/>
<stop offset="0.536458" stop-color="#29B2ED" stop-opacity="0.8"/>
<stop offset="0.967948" stop-color="white"/>
</linearGradient>
<linearGradient id="paint11_linear_319_712" x1="40.3935" y1="110.932" x2="38.7337" y2="82.2982" gradientUnits="userSpaceOnUse">
<stop stop-color="#FF439D"/>
<stop offset="1" stop-color="#FF43D6" stop-opacity="0"/>
</linearGradient>
<linearGradient id="paint12_linear_319_712" x1="180.535" y1="95.3841" x2="146.814" y2="62.9948" gradientUnits="userSpaceOnUse">
<stop offset="0.0729167" stop-color="#4B86FA" stop-opacity="0.8"/>
<stop offset="0.791667" stop-color="#FCA6EF" stop-opacity="0.8"/>
<stop offset="1" stop-color="white"/>
</linearGradient>
<linearGradient id="paint13_linear_319_712" x1="-75.7595" y1="84.5423" x2="-12.4754" y2="-49.0763" gradientUnits="userSpaceOnUse">
<stop offset="0.0729167" stop-color="#4B86FA" stop-opacity="0.8"/>
<stop offset="0.791667" stop-color="#FCA6EF" stop-opacity="0.8"/>
<stop offset="1" stop-color="white"/>
</linearGradient>
</defs>
</svg>
