<svg width="558" height="486" viewBox="0 0 558 486" fill="none" xmlns="http://www.w3.org/2000/svg">
<g opacity="0.5">
<rect x="245.042" y="138.347" width="3.75489" height="3.75489" transform="rotate(-85.5031 245.042 138.347)" fill="#00FFF0" fill-opacity="0.6"/>
<rect width="4.23031" height="4.23031" transform="matrix(0.0784151 -0.996921 0.996922 0.0783971 212.009 386.06)" fill="#00FFF0"/>
<rect width="4.67201" height="4.67201" transform="matrix(-0.078406 0.996922 0.996921 0.0784062 70.2607 89.9688)" fill="#00FFF0"/>
<rect width="4.97142" height="4.97142" transform="matrix(0.0783982 -0.996922 0.996921 0.078414 163.688 23.7858)" fill="#00FFF0"/>
<rect x="527.301" y="218.424" width="4.97142" height="4.97142" transform="rotate(-85.5031 527.301 218.424)" fill="#00FFF0" fill-opacity="0.5"/>
<rect x="397.995" y="277.837" width="2.72456" height="2.72456" transform="rotate(-85.5031 397.995 277.837)" fill="#00FFF0" fill-opacity="0.5"/>
<rect x="308.67" y="445.931" width="4.97142" height="4.97142" transform="rotate(-120.813 308.67 445.931)" fill="#0500FF" fill-opacity="0.5"/>
<rect x="257.807" y="332.013" width="3.47004" height="3.47004" transform="rotate(-85.5031 257.807 332.013)" fill="#00D1FF" fill-opacity="0.6"/>
<rect width="9.35346" height="9.35346" transform="matrix(0.0784018 -0.996922 0.996921 0.0784103 291.882 359.815)" fill="#6100FF" fill-opacity="0.5"/>
</g>
</svg>
