<svg width="610" height="584" viewBox="0 0 610 584" fill="none" xmlns="http://www.w3.org/2000/svg">
<g opacity="0.5">
<rect x="204.345" y="248.214" width="3.75489" height="3.75489" transform="rotate(-134.039 204.345 248.214)" fill="#00FFF0" fill-opacity="0.6"/>
<rect width="4.23031" height="4.23031" transform="matrix(-0.695136 -0.718878 0.718865 -0.695149 368.1 436.992)" fill="#00FFF0"/>
<rect width="4.67201" height="4.67201" transform="matrix(0.695143 0.718872 0.718872 -0.695143 52.3599 347.156)" fill="#00FFF0"/>
<rect width="4.97142" height="4.97142" transform="matrix(-0.695148 -0.718866 0.718877 -0.695137 64.6284 233.32)" fill="#00FFF0"/>
<rect x="451.252" y="89.7217" width="4.97142" height="4.97142" transform="rotate(-134.039 451.252 89.7217)" fill="#00FFF0" fill-opacity="0.5"/>
<rect x="410.153" y="225.96" width="2.72456" height="2.72456" transform="rotate(-134.039 410.153 225.96)" fill="#00FFF0" fill-opacity="0.5"/>
<rect x="476.971" y="404.202" width="4.97142" height="4.97142" transform="rotate(-169.349 476.971 404.202)" fill="#0500FF" fill-opacity="0.5"/>
<rect x="357.924" y="366.885" width="3.47004" height="3.47004" transform="rotate(-134.039 357.924 366.885)" fill="#00D1FF" fill-opacity="0.6"/>
<rect width="9.35346" height="9.35346" transform="matrix(-0.695146 -0.718869 0.718875 -0.69514 401.321 359.76)" fill="#6100FF" fill-opacity="0.5"/>
</g>
</svg>
